<svg width="89" height="81" viewBox="0 0 89 81" fill="none" xmlns="http://www.w3.org/2000/svg">
<path d="M61.4266 40.5972C61.4266 51.5908 59.4847 61.5199 56.3651 68.6818C54.8049 72.2635 52.9601 75.1305 50.937 77.0951C48.9162 79.0573 46.7428 80.0972 44.5034 80.0972C42.2639 80.0972 40.0905 79.0573 38.0698 77.0951C36.0466 75.1305 34.2018 72.2635 32.6416 68.6818C29.522 61.5199 27.5801 51.5908 27.5801 40.5972C27.5801 29.6035 29.522 19.6745 32.6416 12.5126C34.2018 8.93084 36.0466 6.06382 38.0698 4.09928C40.0905 2.13702 42.2639 1.09717 44.5034 1.09717C46.7428 1.09717 48.9162 2.13702 50.937 4.09928C52.9601 6.06382 54.8049 8.93084 56.3651 12.5126C59.4847 19.6745 61.4266 29.6035 61.4266 40.5972Z" stroke="#2B2B2A"/>
<path d="M52.3251 25.5898C62.074 30.6712 69.9812 36.9825 74.8903 43.0591C77.3454 46.0981 79.0351 49.0592 79.8421 51.7613C80.6481 54.4602 80.5657 56.8681 79.5306 58.854C78.4955 60.8399 76.5689 62.2866 73.8948 63.1716C71.2176 64.0576 67.8225 64.3684 63.9252 64.0964C56.1323 63.5526 46.4299 60.6854 36.6811 55.6041C26.9322 50.5228 19.0249 44.2115 14.1158 38.1348C11.6608 35.0958 9.97105 32.1348 9.16405 29.4327C8.35799 26.7337 8.44042 24.3258 9.4755 22.3399C10.5106 20.354 12.4372 18.9074 15.1113 18.0223C17.7885 17.1363 21.1836 16.8255 25.0809 17.0975C32.8738 17.6414 42.5762 20.5085 52.3251 25.5898Z" stroke="#2B2B2A"/>
<circle cx="71.3015" cy="63.4196" r="4.32244" fill="#2B2B2A" stroke="#2B2B2A"/>
<circle cx="53.36" cy="6.47235" r="4.32244" fill="#BDD0CB" stroke="#2B2B2A"/>
<circle cx="44.0163" cy="39.928" r="8.84349" fill="#BDD0CB" stroke="#2B2B2A"/>
</svg>
