<svg width="81" height="75" viewBox="0 0 81 75" fill="none" xmlns="http://www.w3.org/2000/svg">
<path d="M12.7831 68.2658C10.5621 58.5843 8.39165 38.3827 17.4777 35.028C28.8354 30.8346 39.5208 54.1347 48.8578 49.2C56.3274 45.2523 55.9487 24.9479 54.8256 15.2892" stroke="#2B2B2A"/>
<path d="M79.5483 17.127C79.5483 26.3099 72.1041 33.7541 62.9212 33.7541C53.7384 33.7541 46.2942 26.3099 46.2942 17.127C46.2942 7.94418 53.7384 0.5 62.9212 0.5C72.1041 0.5 79.5483 7.94418 79.5483 17.127Z" fill="#BDD0CB" stroke="#2B2B2A"/>
<path d="M74.2328 12.2059C74.2328 16.5455 70.7149 20.0634 66.3753 20.0634C62.0357 20.0634 58.5178 16.5455 58.5178 12.2059C58.5178 7.86631 62.0357 4.34839 66.3753 4.34839C70.7149 4.34839 74.2328 7.86631 74.2328 12.2059Z" fill="#2B2B2A" stroke="#2B2B2A"/>
<circle cx="67.498" cy="10.2165" r="3.0419" fill="#FAFAFA" stroke="#2B2B2A"/>
<rect x="11.1479" y="73.4987" width="5.91048" height="5.91048" transform="rotate(-135 11.1479 73.4987)" fill="#BDD0CB" stroke="#2B2B2A"/>
<rect x="11.1479" y="69.0571" width="5.91048" height="5.91048" transform="rotate(-135 11.1479 69.0571)" fill="#2B2B2A" stroke="#2B2B2A"/>
</svg>
